<?xml version="1.0" encoding="utf-8"?>
<!-- Generator: Adobe Illustrator 25.0.1, SVG Export Plug-In . SVG Version: 6.00 Build 0)  -->
<svg version="1.1" id="Layer_1" xmlns="http://www.w3.org/2000/svg" xmlns:xlink="http://www.w3.org/1999/xlink" x="0px" y="0px"
	 viewBox="0 0 665.1 196.4" style="enable-background:new 0 0 665.1 196.4;" xml:space="preserve">
<style type="text/css">
	.st0{opacity:0.8;}
	.st1{fill:#FBFF1F;}
	.st2{opacity:0.65;fill:#1FBDFF;enable-background:new    ;}
	.st3{opacity:0.65;}
	.st4{fill:#FF3579;}
	.st5{opacity:0.65;fill:#FF3579;enable-background:new    ;}
	.st6{fill:#3BA9ED;}
</style>
<g class="st0">
	<rect x="4.9" y="36.3" class="st1" width="128" height="128"/>
</g>
<circle class="st2" cx="36.8" cy="36.1" r="32.1"/>
<g class="st3">
	<circle class="st4" cx="105.2" cy="114.5" r="49.9"/>
</g>
<polygon class="st5" points="185.7,114.4 132.9,73.2 132.9,155.8 "/>
<g>
	<path class="st6" d="M229,154.3c-3.4,0-5.1-1.6-5.1-4.8v-98c0-3.4,1.8-5.1,5.4-5.1h7.6c3.3,0,5,1.6,5,4.8v88.2h29.7
		c2.9,0,4.3,1.4,4.3,4.3v6.8c0,2.6-1.5,3.9-4.5,3.9H229z"/>
	<path class="st6" d="M346.9,141.9v8.1c0,2.9-1.6,4.3-4.9,4.3h-48.9c-3.5,0-5.2-2.1-5.2-6.3V53.3c0-4.6,2.2-7,6.6-7h46.8
		c3.7,0,5.5,1.6,5.5,4.9v7.5c0,3.1-1.7,4.6-5.1,4.6h-36.9v26h31.9c3.4,0,5.1,1.6,5.1,4.9v5.7c0,3.6-1.9,5.4-5.7,5.4h-31.3v32h37.2
		C345.3,137.3,346.9,138.9,346.9,141.9z"/>
	<path class="st6" d="M417.9,141.9v8.1c0,2.9-1.6,4.3-4.9,4.3h-48.9c-3.5,0-5.2-2.1-5.2-6.3V53.3c0-4.6,2.2-7,6.6-7h46.8
		c3.7,0,5.5,1.6,5.5,4.9v7.5c0,3.1-1.7,4.6-5.1,4.6h-36.9v26h31.9c3.4,0,5.1,1.6,5.1,4.9v5.7c0,3.6-1.9,5.4-5.7,5.4h-31.3v32h37.2
		C416.3,137.3,417.9,138.9,417.9,141.9z"/>
	<path class="st6" d="M449,144.3c-0.1,3.7-0.9,6.1-2.3,7.4c-1.4,1.2-3.8,2-7.3,2.3c-3.6-0.3-6.1-1.1-7.3-2.3c-1.3-1.3-2-3.7-2.1-7.3
		c0.1-3.5,0.8-6,2.1-7.4c1.2-1.4,3.7-2.2,7.4-2.3c3.8,0.1,6.3,0.9,7.5,2.2C448.2,138.1,448.9,140.6,449,144.3z"/>
	<path class="st6" d="M529.7,80.2l-16.5,36.5c-1.4,2.4-3.3,3.6-5.6,3.6H501c-1.2,0-2.3-0.3-3.2-1c-0.9-0.7-1.6-1.6-2.2-2.8
		c-2.8-6.2-5.6-12.2-8.3-18.1c-2.7-5.9-5.5-12-8.3-18.3v69.5c0,2.6-2.1,4.8-4.8,4.8h-7.5c-3.2,0-4.8-1.7-4.8-5V51.1
		c0-3.2,1.8-4.8,5.5-4.8h8.3c2.7,0,4.7,0.9,5.9,2.7L505,98.8l23.3-49.9c0.9-1.7,2.7-2.6,5.2-2.6h8.9c3.7,0,5.5,1.6,5.5,4.9v98.7
		c0,2.9-1.6,4.4-4.9,4.4h-8.3c-3.3,0-4.9-1.3-4.9-4h0.1L529.7,80.2z"/>
	<path class="st6" d="M579.6,144.3c-0.1,3.7-0.9,6.1-2.3,7.4c-1.4,1.2-3.8,2-7.3,2.3c-3.6-0.3-6.1-1.1-7.3-2.3
		c-1.3-1.3-2-3.7-2.1-7.3c0.1-3.5,0.8-6,2.1-7.4c1.2-1.4,3.7-2.2,7.4-2.3c3.8,0.1,6.3,0.9,7.5,2.2
		C578.7,138.1,579.4,140.6,579.6,144.3z"/>
	<path class="st6" d="M609.9,150c0,2.9-1.6,4.3-4.9,4.3h-8.7c-3,0-4.5-1.7-4.5-5V51.8c0-3.6,1.9-5.4,5.7-5.4h7.4c3.3,0,5,1.6,5,4.8
		v38.2h33V51.8c0-3.6,1.8-5.4,5.5-5.4h6.8c2.6,0,4.8,2.1,4.8,4.8V150c0,2.9-1.6,4.3-4.8,4.3h-7.2c-2.8,0-5-2.2-5-5v-43h-33V150z"/>
</g>
</svg>
